<svg width="141" height="40" viewBox="0 0 141 40" fill="none" xmlns="http://www.w3.org/2000/svg">
<rect width="140.87" height="40" fill="#1E1E1E"/>
<path d="M23.1364 21.6147L17.3333 30.8986L19.1884 25.1014H14.087L12 21.1594L26.1449 4L15.7101 21.1594L15.942 21.6232L23.1364 21.6147Z" fill="#9CA3AF"/>
<path d="M21.7332 18.3853L27.5362 9.10145L25.6812 14.8986H30.7826L32.8696 18.8406L18.7246 36L29.1594 18.8406L28.9275 18.3768L21.7332 18.3853Z" fill="#D1D5DB"/>
<path d="M46.8296 27.14C45.9096 27.14 45.0829 26.98 44.3496 26.66C43.6296 26.3267 43.0629 25.8733 42.6496 25.3C42.2362 24.7133 42.0229 24.04 42.0096 23.28H43.9496C44.0162 23.9333 44.2829 24.4867 44.7496 24.94C45.2296 25.38 45.9229 25.6 46.8296 25.6C47.6962 25.6 48.3762 25.3867 48.8696 24.96C49.3762 24.52 49.6296 23.96 49.6296 23.28C49.6296 22.7467 49.4829 22.3133 49.1896 21.98C48.8962 21.6467 48.5296 21.3933 48.0896 21.22C47.6496 21.0467 47.0562 20.86 46.3096 20.66C45.3896 20.42 44.6496 20.18 44.0896 19.94C43.5429 19.7 43.0696 19.3267 42.6696 18.82C42.2829 18.3 42.0896 17.6067 42.0896 16.74C42.0896 15.98 42.2829 15.3067 42.6696 14.72C43.0562 14.1333 43.5962 13.68 44.2896 13.36C44.9962 13.04 45.8029 12.88 46.7096 12.88C48.0162 12.88 49.0829 13.2067 49.9096 13.86C50.7496 14.5133 51.2229 15.38 51.3296 16.46H49.3296C49.2629 15.9267 48.9829 15.46 48.4896 15.06C47.9962 14.6467 47.3429 14.44 46.5296 14.44C45.7696 14.44 45.1496 14.64 44.6696 15.04C44.1896 15.4267 43.9496 15.9733 43.9496 16.68C43.9496 17.1867 44.0896 17.6 44.3696 17.92C44.6629 18.24 45.0162 18.4867 45.4296 18.66C45.8562 18.82 46.4496 19.0067 47.2096 19.22C48.1296 19.4733 48.8696 19.7267 49.4296 19.98C49.9896 20.22 50.4696 20.6 50.8696 21.12C51.2696 21.6267 51.4696 22.32 51.4696 23.2C51.4696 23.88 51.2896 24.52 50.9296 25.12C50.5696 25.72 50.0362 26.2067 49.3296 26.58C48.6229 26.9533 47.7896 27.14 46.8296 27.14ZM63.8678 16.04V27H62.0478V25.38C61.7012 25.94 61.2145 26.38 60.5878 26.7C59.9745 27.0067 59.2945 27.16 58.5478 27.16C57.6945 27.16 56.9278 26.9867 56.2478 26.64C55.5678 26.28 55.0278 25.7467 54.6278 25.04C54.2412 24.3333 54.0478 23.4733 54.0478 22.46V16.04H55.8478V22.22C55.8478 23.3 56.1212 24.1333 56.6678 24.72C57.2145 25.2933 57.9612 25.58 58.9078 25.58C59.8812 25.58 60.6478 25.28 61.2078 24.68C61.7678 24.08 62.0478 23.2067 62.0478 22.06V16.04H63.8678ZM68.7608 18.06C69.1208 17.4333 69.6542 16.9133 70.3608 16.5C71.0808 16.0733 71.9142 15.86 72.8608 15.86C73.8342 15.86 74.7142 16.0933 75.5008 16.56C76.3008 17.0267 76.9275 17.6867 77.3808 18.54C77.8342 19.38 78.0608 20.36 78.0608 21.48C78.0608 22.5867 77.8342 23.5733 77.3808 24.44C76.9275 25.3067 76.3008 25.98 75.5008 26.46C74.7142 26.94 73.8342 27.18 72.8608 27.18C71.9275 27.18 71.1008 26.9733 70.3808 26.56C69.6742 26.1333 69.1342 25.6067 68.7608 24.98V32.2H66.9408V16.04H68.7608V18.06ZM76.2008 21.48C76.2008 20.6533 76.0342 19.9333 75.7008 19.32C75.3675 18.7067 74.9142 18.24 74.3408 17.92C73.7808 17.6 73.1608 17.44 72.4808 17.44C71.8142 17.44 71.1942 17.6067 70.6208 17.94C70.0608 18.26 69.6075 18.7333 69.2608 19.36C68.9275 19.9733 68.7608 20.6867 68.7608 21.5C68.7608 22.3267 68.9275 23.0533 69.2608 23.68C69.6075 24.2933 70.0608 24.7667 70.6208 25.1C71.1942 25.42 71.8142 25.58 72.4808 25.58C73.1608 25.58 73.7808 25.42 74.3408 25.1C74.9142 24.7667 75.3675 24.2933 75.7008 23.68C76.0342 23.0533 76.2008 22.32 76.2008 21.48ZM90.4564 21.1C90.4564 21.4467 90.4364 21.8133 90.3964 22.2H81.6364C81.7031 23.28 82.0698 24.1267 82.7364 24.74C83.4164 25.34 84.2364 25.64 85.1964 25.64C85.9831 25.64 86.6364 25.46 87.1564 25.1C87.6898 24.7267 88.0631 24.2333 88.2764 23.62H90.2364C89.9431 24.6733 89.3564 25.5333 88.4764 26.2C87.5964 26.8533 86.5031 27.18 85.1964 27.18C84.1564 27.18 83.2231 26.9467 82.3964 26.48C81.5831 26.0133 80.9431 25.3533 80.4764 24.5C80.0098 23.6333 79.7764 22.6333 79.7764 21.5C79.7764 20.3667 80.0031 19.3733 80.4564 18.52C80.9098 17.6667 81.5431 17.0133 82.3564 16.56C83.1831 16.0933 84.1298 15.86 85.1964 15.86C86.2364 15.86 87.1564 16.0867 87.9564 16.54C88.7564 16.9933 89.3698 17.62 89.7964 18.42C90.2364 19.2067 90.4564 20.1 90.4564 21.1ZM88.5764 20.72C88.5764 20.0267 88.4231 19.4333 88.1164 18.94C87.8098 18.4333 87.3898 18.0533 86.8564 17.8C86.3364 17.5333 85.7564 17.4 85.1164 17.4C84.1964 17.4 83.4098 17.6933 82.7564 18.28C82.1164 18.8667 81.7498 19.68 81.6564 20.72H88.5764ZM94.6788 17.82C94.9988 17.1933 95.4521 16.7067 96.0388 16.36C96.6388 16.0133 97.3655 15.84 98.2188 15.84V17.72H97.7388C95.6988 17.72 94.6788 18.8267 94.6788 21.04V27H92.8588V16.04H94.6788V17.82ZM108.56 23.9H102.48L101.36 27H99.4397L104.48 13.14H106.58L111.6 27H109.68L108.56 23.9ZM108.04 22.42L105.52 15.38L103 22.42H108.04ZM123.116 17.14C123.116 18.3 122.716 19.2667 121.916 20.04C121.13 20.8 119.923 21.18 118.296 21.18H115.616V27H113.796V13.06H118.296C119.87 13.06 121.063 13.44 121.876 14.2C122.703 14.96 123.116 15.94 123.116 17.14ZM118.296 19.68C119.31 19.68 120.056 19.46 120.536 19.02C121.016 18.58 121.256 17.9533 121.256 17.14C121.256 15.42 120.27 14.56 118.296 14.56H115.616V19.68H118.296ZM127.198 13.06V27H125.378V13.06H127.198Z" fill="white"/>
</svg>
